<svg id="Layer_1" data-name="Layer 1" xmlns="http://www.w3.org/2000/svg" xmlns:xlink="http://www.w3.org/1999/xlink" viewBox="0 0 5000 3750"><defs><style>.cls-1{fill:#e52829;}.cls-2{fill:url(#linear-gradient);}.cls-3{fill:#fff;}</style><linearGradient id="linear-gradient" x1="-101.61" y1="2515.83" x2="4867" y2="2515.83" gradientUnits="userSpaceOnUse"><stop offset="0" stop-color="#ffde3f"/><stop offset="0.25" stop-color="#ef7744"/><stop offset="0.5" stop-color="#ae5ca0"/><stop offset="0.75" stop-color="#5b4a99"/><stop offset="1" stop-color="#314c9c"/></linearGradient></defs><rect class="cls-1" y="-27.5" width="5000" height="3841.67"/><path class="cls-2" d="M3726,1380.21c-475.29,0-808.92,226.55-1163.62,566.71L2489,2017.23l208.62,215.1c47.64,49.12,111,76.17,178.46,76.17a248.82,248.82,0,0,0,164.59-62.75c252.13-222.59,450.66-313.38,685.26-313.38,169.86,0,325.33,61.81,437.78,174,108.14,107.93,167.7,253.33,167.7,409.42s-59.56,301.49-167.69,409.42c-112.46,112.23-267.93,174-437.79,174-354.71,0-605.22-217-957.47-576.3L2451,2195.6c-388.94-400.87-791.11-815.39-1411.56-815.39a1198,1198,0,0,0-202.51,17.1v566.4c63.65-20.6,131.83-31.34,202.51-31.34,357.12,0,608.63,220,964.64,583.6l0,0,310.41,320c388.94,400.87,791.12,815.39,1411.55,815.39,639.83,0,1141-498.82,1141-1135.62S4365.8,1380.21,3726,1380.21Z"/><path class="cls-3" d="M3726,1380.21c-475.29,0-808.92,226.55-1163.62,566.71L2489,2017.23l208.62,215.1c47.64,49.12,111,76.17,178.46,76.17a248.82,248.82,0,0,0,164.59-62.75c252.13-222.59,450.66-313.38,685.26-313.38,169.86,0,325.33,61.81,437.78,174,108.14,107.93,167.7,253.33,167.7,409.42s-59.56,301.49-167.69,409.42c-112.46,112.23-267.93,174-437.79,174-354.71,0-605.22-217-957.47-576.3L2451,2195.6c-388.94-400.87-791.11-815.39-1411.56-815.39a1198,1198,0,0,0-202.51,17.1v566.4c63.65-20.6,131.83-31.34,202.51-31.34,357.12,0,608.63,220,964.64,583.6l0,0,310.41,320c388.94,400.87,791.12,815.39,1411.55,815.39,639.83,0,1141-498.82,1141-1135.62S4365.8,1380.21,3726,1380.21Z"/><path class="cls-3" d="M2876.12,2308.5a248.82,248.82,0,0,0,164.59-62.75c252.13-222.59,450.66-313.38,685.26-313.38,169.86,0,325.33,61.81,437.78,174,107.89,107.68,167.4,252.67,167.68,408.34,1.63,23.27.83,44.21-3,61.56C4473.75,1918.82,3895.5,1162.67,3074,1549.64h0q-16.27,9-32.4,18.46l-1.07.62q-15.67,9.19-31.23,18.78l-2.06,1.26q-15.16,9.36-30.24,19.11l-2.79,1.8q-14.7,9.54-29.31,19.41l-3.62,2.45q-14.22,9.66-28.37,19.64l-4.41,3.11q-13.77,9.76-27.48,19.81l-5.21,3.84q-13.33,9.84-26.62,19.94-3,2.28-6,4.58-12.91,9.88-25.78,20c-2.28,1.8-4.56,3.63-6.85,5.44q-12.42,9.84-24.81,19.9c-2.65,2.16-5.3,4.35-7.95,6.52q-11.88,9.73-23.75,19.64c-3,2.53-6,5.09-9,7.63-7.56,6.38-15.11,12.78-22.66,19.28-3.48,3-7,6.05-10.43,9.08-7.11,6.17-14.22,12.35-21.33,18.63-4.07,3.59-8.14,7.26-12.21,10.89-6.52,5.81-13,11.6-19.55,17.49-5,4.48-9.91,9-14.86,13.56-5.71,5.22-11.42,10.4-17.13,15.68-6.11,5.64-12.23,11.39-18.34,17.1-4.61,4.3-9.21,8.55-13.82,12.9q-16.14,15.19-32.32,30.72L2489,2017.23l208.62,215.1C2745.3,2281.45,2808.68,2308.5,2876.12,2308.5Z"/><path class="cls-3" d="M3387,3160.69,2768.5,2523,2451,2195.6c-388.94-400.87-791.11-815.39-1411.56-815.39A1194.63,1194.63,0,0,0,836.9,1397.4v95.26c250.2,65.4,463.62,297.95,629.79,469.28l537.36,554s.13.2.16.26l310.21,319.83c388.94,400.86,791.12,815.39,1411.55,815.39,231.21,0,444.12-65.4,622-178.65C4020.94,3655.49,3667.58,3450,3387,3160.69Z"/><path class="cls-3" d="M3504.41,164.2Q2706.79,636,1909.54,1108.44c-24.7,14.66-41.91,14.5-66.52-.11Q1060.94,644,277.8,181.51c-22.72-13.44-45.68-26.43-73.82-42.69v30.47q0,1057.86.35,2115.72a710.65,710.65,0,0,0,41.23,238.39c96.68,272,318.75,443.58,580.87,468.9V2611.45C674,2575.84,561.34,2438.16,561.8,2258.05c.68-267.92,2.66-535.84,3.59-803.77.76-216.15.79-432.32,1.22-648.48,0-9.23.92-18.46,1.57-30.79,12.07,6.46,21.26,11,30.05,16.15Q1225.77,1162.32,1853,1534c16.78,10,28.9,10.6,46.12.38q629.5-373.44,1259.74-745.63c7.76-4.59,15.79-8.69,27.28-15v40.15q0,195.79,0,391.6c64,48.25,130,93.77,196.36,138.55,54.75,36.94,109.77,73.44,164.23,110.82V139.66C3530.27,149.19,3517.28,156.59,3504.41,164.2Z"/><path class="cls-3" d="M906.16,2518.39l80.67,398-41.12,5.27c5.81,8.06,9.28,13.43,13.29,18.34,37.92,46.34,81.52,86.09,129.45,121.23,65.5,48,57.22,146.82-15,180.39-36,16.71-70.61,11.43-102.83-11.65-90.71-64.95-167.13-144.49-226.92-240.26-10.76-17.22-21-22.38-39-15.75-8.3,3.07-17.32,4.27-26.11,5.68-28.88,4.61-51.88-11.53-57.89-41q-29.6-145-58.81-290c-6.84-33.85,7.54-57.27,40.74-64.73,52.77-11.84,105.7-22.92,158.56-34.31Z"/><path class="cls-3" d="M1326.86,2324.48c-118.73,95-245.29,171.39-384.58,228l-9.78-48.28c7.52-3.59,15.29-7.58,23.27-11.07q200.51-87.73,368.36-230.84c24.73-21,37.27-16.38,43.93,16.41,14.28,70.27,29,140.46,42.37,210.91,2.9,15.25,9.22,20.85,23.68,22.22,12.44,1.17,26.37,3.31,36.29,10.17,9.19,6.36,17.14,18.67,20,29.89,8.43,32.71,14.27,66.13,20.71,99.36,3.85,19.89-2.36,31.83-19.88,40.41-35.93,17.6-35.93,17.6-27.89,57.25q19.3,95.29,38.62,190.6c7.46,36.85-1.46,45.11-37.3,34.71a1463.92,1463.92,0,0,0-424-58.35c-29,.29-24.28,6.49-31.29-26.33-1.4-6.57-2.68-13.18-4.53-22.31,150.74-5.69,296.33,12,442.16,50.11Zm119.23,332.3c11.81-1.23,15.63-6.61,13.3-17.44q-7-32.76-13.3-65.7c-2.13-11.24-8.24-13.64-18.95-10.35Z"/><path class="cls-3" d="M1636.1,2590.43c-19,4.1-38,8.5-57.09,12.21-16.7,3.24-29.42-4.81-31.84-19.3-2.3-13.83,6-25.75,21.85-29.31q58.59-13.16,117.41-25.29c16.61-3.43,29.4,4.88,31.83,19.35,2.34,14-5.88,25.49-21.84,29.24C1676.39,2582.05,1656.22,2586.09,1636.1,2590.43Z"/><path class="cls-3" d="M1567.71,2230c6.88,4.59,16.57,8.19,21.89,15.28,7.8,10.38,4.19,22.05-4.92,30.75-16.7,15.95-33.8,31.45-50.77,47.11-13.65,12.59-27.09,25.46-41.11,37.61-12.45,10.8-26.31,10.17-35.64-.63s-8.32-25.12,3.77-36.46c30-28.13,60.3-55.86,90.66-83.54C1555.22,2236.8,1560,2234.79,1567.71,2230Z"/><path class="cls-3" d="M1555.32,2800.62c10.11,2.06,16.74,2.72,22.93,4.78q53.91,17.92,107.63,36.46c18.3,6.3,25.72,18,21.38,32.74-4.5,15.28-17.91,20.76-36.75,14.45-37-12.39-73.84-25.12-110.79-37.58-12.65-4.26-21.06-13.15-18.54-26.57C1542.82,2816.16,1550.43,2808.62,1555.32,2800.62Z"/></svg>