<svg id="Layer_1" data-name="Layer 1" xmlns="http://www.w3.org/2000/svg" xmlns:xlink="http://www.w3.org/1999/xlink" viewBox="0 0 5000 3750"><defs><style>.cls-1{fill:#e52829;}.cls-2{fill:url(#linear-gradient);}.cls-3{fill:#fff;}</style><linearGradient id="linear-gradient" x1="172.74" y1="2404.76" x2="4557.62" y2="2404.76" gradientUnits="userSpaceOnUse"><stop offset="0" stop-color="#ffde3f"/><stop offset="0.25" stop-color="#ef7744"/><stop offset="0.5" stop-color="#ae5ca0"/><stop offset="0.75" stop-color="#5b4a99"/><stop offset="1" stop-color="#314c9c"/></linearGradient></defs><rect class="cls-1" y="-27.5" width="5000" height="3841.67"/><path class="cls-2" d="M3550.65,1397.69c-419.46,0-713.89,200.9-1026.92,502.56L2459,1962.6l184.11,190.75c42.05,43.56,98,67.55,157.5,67.55,53.19,0,104.78-19.75,145.25-55.65,222.51-197.39,397.72-277.9,604.76-277.9,149.89,0,287.1,54.81,386.34,154.33,95.44,95.72,148,224.66,148,363.08s-52.56,267.36-148,363.08c-99.25,99.52-236.46,154.33-386.35,154.33-313,0-534.13-192.42-845-511.06l-280.22-290.33c-343.25-355.49-698.18-723.09-1245.73-723.09A1052,1052,0,0,0,1001,1412.85v502.29c56.17-18.26,116.34-27.79,178.72-27.79,315.16,0,537.13,195.05,851.31,517.54l0,0,273.95,283.82c343.24,355.49,698.17,723.09,1245.72,723.09,564.65,0,1007-442.35,1007-1007.07S4115.3,1397.69,3550.65,1397.69Z"/><path class="cls-3" d="M3550.65,1397.69c-419.46,0-713.89,200.9-1026.92,502.56L2459,1962.6l184.11,190.75c42.05,43.56,98,67.55,157.5,67.55,53.19,0,104.78-19.75,145.25-55.65,222.51-197.39,397.72-277.9,604.76-277.9,149.89,0,287.1,54.81,386.34,154.33,95.44,95.72,148,224.66,148,363.08s-52.56,267.36-148,363.08c-99.25,99.52-236.46,154.33-386.35,154.33-313,0-534.13-192.42-845-511.06l-280.22-290.33c-343.25-355.49-698.18-723.09-1245.73-723.09A1052,1052,0,0,0,1001,1412.85v502.29c56.17-18.26,116.34-27.79,178.72-27.79,315.16,0,537.13,195.05,851.31,517.54l0,0,273.95,283.82c343.24,355.49,698.17,723.09,1245.72,723.09,564.65,0,1007-442.35,1007-1007.07S4115.3,1397.69,3550.65,1397.69Z"/><path class="cls-3" d="M2800.64,2220.9c53.19,0,104.78-19.76,145.25-55.65,222.51-197.39,397.72-277.9,604.76-277.9,149.89,0,287.1,54.81,386.34,154.33,95.22,95.5,147.74,224.07,148,362.12,1.44,20.64.74,39.21-2.65,54.59,128.25-583.06-382.06-1253.62-1107.06-910.45h0q-14.37,8-28.6,16.37l-.94.55q-13.85,8.14-27.57,16.65l-1.81,1.12q-13.4,8.31-26.69,16.95l-2.47,1.6q-13,8.44-25.86,17.21l-3.19,2.17q-12.56,8.57-25,17.41l-3.89,2.77q-12.15,8.65-24.26,17.57l-4.59,3.4q-11.77,8.73-23.5,17.68l-5.27,4.06q-11.4,8.77-22.75,17.74l-6,4.82q-11,8.73-21.9,17.65c-2.34,1.91-4.67,3.86-7,5.78q-10.48,8.64-21,17.42c-2.66,2.24-5.31,4.51-8,6.77q-10,8.47-20,17.1c-3.07,2.65-6.14,5.36-9.21,8-6.27,5.48-12.54,11-18.82,16.52-3.59,3.19-7.18,6.44-10.78,9.66-5.74,5.15-11.49,10.29-17.25,15.51-4.37,4-8.74,8-13.11,12-5,4.63-10.08,9.22-15.12,13.9-5.39,5-10.79,10.1-16.18,15.17-4.07,3.82-8.13,7.58-12.2,11.44q-14.23,13.47-28.52,27.24L2459,1962.6l184.11,190.75C2685.19,2196.91,2741.12,2220.9,2800.64,2220.9Z"/><path class="cls-3" d="M3251.51,2976.62l-545.85-565.51-280.22-290.33c-343.25-355.49-698.18-723.09-1245.73-723.09A1048.77,1048.77,0,0,0,1001,1412.94v84.47c220.8,58,409.15,264.22,555.8,416.16L2031,2404.88l.14.23,273.77,283.63c343.24,355.49,698.17,723.09,1245.72,723.09,204,0,391.94-58,548.93-158.42C3811,3415.41,3499.12,3233.15,3251.51,2976.62Z"/><path class="cls-3" d="M3355.11,319.33q-703.91,418.38-1407.5,837.35c-21.8,13-37,12.86-58.7-.09Q1198.7,744.81,507.57,334.67c-20-11.91-40.31-23.43-65.14-37.85v27q0,938.12.3,1876.23a632.93,632.93,0,0,0,36.4,211.4c85.32,241.21,281.3,393.37,512.62,415.83V2489.56c-134.49-31.58-234-153.68-233.54-313.4.6-237.59,2.34-475.18,3.17-712.78.67-191.69.69-383.38,1.08-575.08,0-8.18.81-16.37,1.38-27.3,10.65,5.73,18.76,9.71,26.52,14.32Q1344.17,1204.46,1897.74,1534c14.8,8.83,25.5,9.4,40.69.34Q2494,1203.19,3050.18,873.14c6.84-4.07,13.93-7.71,24.07-13.29v35.61q0,173.63,0,347.27c56.51,42.79,114.72,83.15,173.29,122.87,48.31,32.75,96.87,65.12,144.93,98.27V297.56C3377.94,306,3366.47,312.58,3355.11,319.33Z"/><path class="cls-3" d="M1062.12,2407l71.19,353-36.29,4.68c5.13,7.14,8.18,11.91,11.72,16.26,33.47,41.09,72,76.35,114.25,107.51,57.81,42.59,50.5,130.2-13.22,160-31.73,14.82-62.31,10.14-90.75-10.33C1039,2980.5,971.52,2910,918.75,2825c-9.48-15.27-18.56-19.85-34.38-14-7.33,2.72-15.29,3.79-23,5-25.49,4.1-45.78-10.21-51.09-36.34q-26.12-128.57-51.9-257.19c-6-30,6.66-50.79,36-57.4,46.56-10.51,93.28-20.33,139.93-30.43Z"/><path class="cls-3" d="M1433.39,2235.07c-104.78,84.21-216.48,152-339.4,202.2l-8.63-42.81c6.63-3.19,13.5-6.73,20.54-9.82q176.94-77.8,325.08-204.71c21.82-18.65,32.89-14.52,38.77,14.55,12.6,62.32,25.58,124.56,37.39,187,2.56,13.52,8.14,18.48,20.9,19.7,11,1,23.27,2.94,32,9,8.11,5.64,15.13,16.56,17.69,26.51,7.44,29,12.6,58.65,18.28,88.12,3.4,17.63-2.09,28.22-17.54,35.83-31.72,15.61-31.72,15.61-24.62,50.77q17,84.51,34.08,169c6.58,32.68-1.29,40-32.92,30.79a1285.78,1285.78,0,0,0-374.2-51.75c-25.58.25-21.43,5.76-27.61-23.35-1.24-5.83-2.37-11.69-4-19.79,133-5,261.51,10.63,390.21,44.44Zm105.22,294.69c10.43-1.1,13.8-5.87,11.74-15.47q-6.22-29.05-11.74-58.26c-1.88-10-7.27-12.1-16.72-9.18Z"/><path class="cls-3" d="M1706.3,2470.91c-16.79,3.64-33.53,7.54-50.38,10.83-14.74,2.88-26-4.26-28.1-17.11-2-12.26,5.29-22.84,19.28-26q51.7-11.67,103.61-22.43c14.66-3,26,4.33,28.09,17.16,2.07,12.38-5.19,22.6-19.27,25.93C1741.86,2463.49,1724.05,2467.07,1706.3,2470.91Z"/><path class="cls-3" d="M1645.94,2151.28c6.07,4.07,14.62,7.26,19.32,13.55,6.88,9.2,3.7,19.55-4.35,27.27-14.73,14.14-29.82,27.89-44.79,41.77-12,11.17-23.92,22.58-36.29,33.36-11,9.58-23.22,9-31.45-.56s-7.34-22.28,3.32-32.34c26.46-24.94,53.22-49.53,80-74.08C1634.92,2157.32,1639.09,2155.54,1645.94,2151.28Z"/><path class="cls-3" d="M1635,2657.31c8.92,1.83,14.77,2.42,20.23,4.24q47.58,15.91,95,32.33c16.15,5.59,22.7,16,18.87,29-4,13.55-15.81,18.41-32.44,12.81-32.62-11-65.16-22.27-97.77-33.32-11.16-3.78-18.59-11.66-16.36-23.56C1624,2671.1,1630.7,2664.4,1635,2657.31Z"/></svg>